<svg xmlns="http://www.w3.org/2000/svg" viewBox="0 0 24 24" id="Arrival">
  <path d="M20.4 15.6c-1-1.3-2.3-2.2-3.9-2.8l-1.4-7.1c-.1-.3-.3-.6-.6-.7l-2.7-1.2c-.3-.1-.6-.1-.9.1-.3.2-.5.5-.5.8l-.4 6.2-1.8-.5-.6-2.6c0-.3-.2-.6-.5-.7l-1.9-.8c-.3-.2-.6-.2-.9 0-.3.2-.5.5-.5.8l-.1 3c-.1 1.8.9 3.5 2.6 4.3L18 19.7c.3.1.6.2 1 .2.5 0 1.1-.2 1.5-.5.5-.4.8-1 .9-1.6.1-.6-.1-1.3-.5-1.8l-.5-.4zm-1.2 2.3c-.1.1-.3.1-.4 0L7.1 12.6c-.9-.4-1.5-1.4-1.4-2.4l.1-1.6.6 2.7c.1.4.3.6.7.7l3.6 1c.3.1.6 0 .9-.1.2-.2.4-.4.4-.8l.4-6.1.9.4 1.4 7.2c.1.4.3.7.7.8 1.4.4 2.6 1.2 3.5 2.3l.4.5c.1.1.1.2.1.3-.1.2-.1.3-.2.4z" fill="#a524f1" class="color000000 svgShape"></path>
</svg>
