<svg xmlns="http://www.w3.org/2000/svg" xmlns:xlink="http://www.w3.org/1999/xlink" enable-background="new 0 0 32 32" viewBox="0 0 32 32" id="deal">
  <defs>
    <linearGradient id="a">
      <stop offset="0" stop-color="#000092"></stop>
      <stop offset="1" stop-color="#ff00f3"></stop>
    </linearGradient>
    <linearGradient xlink:href="#a" id="b" x1="4.279" x2="25" y1="15.999" y2="15.999" gradientUnits="userSpaceOnUse"></linearGradient>
  </defs>
  <path fill="url(#b)" d="M 25.103516 6.0507812 C 23.924805 5.9775098 22.549609 6.4934375 21.349609 7.5234375 L 21.255859 7.4316406 C 20.745859 6.9216406 20.039266 6.661125 19.322266 6.703125 L 15.673828 6.9472656 C 15.069828 6.9882656 14.501266 7.2448281 14.072266 7.6738281 L 5.0117188 16.736328 C 4.5387188 17.208328 4.2792969 17.835906 4.2792969 18.503906 C 4.2792969 19.171906 4.5397187 19.799484 5.0117188 20.271484 L 9.9609375 25.222656 C 10.447938 25.709656 11.088516 25.953125 11.728516 25.953125 C 12.369516 25.953125 13.008094 25.709656 13.496094 25.222656 L 22.558594 16.160156 C 22.986594 15.732156 23.245156 15.163594 23.285156 14.558594 L 23.292969 14.453125 C 24.206969 14.159125 25.110094 13.608656 25.871094 12.847656 C 27.853094 10.863656 28.318641 8.2239375 26.931641 6.8359375 C 26.446391 6.3510625 25.810742 6.0947441 25.103516 6.0507812 z M 24.912109 7.0546875 C 25.437801 7.0588652 25.897234 7.2159688 26.224609 7.5429688 C 27.182609 8.5009687 26.698063 10.605672 25.164062 12.138672 C 24.621063 12.682672 23.999281 13.106 23.363281 13.375 L 23.527344 10.910156 C 23.575344 10.191156 23.310781 9.4865625 22.800781 8.9765625 L 22.054688 8.2304688 C 22.977812 7.4660937 24.035957 7.0477246 24.912109 7.0546875 z M 19.388672 7.7011719 C 19.828672 7.6701719 20.242828 7.8316719 20.548828 8.1386719 L 20.628906 8.21875 C 20.251906 8.64475 19.928687 9.1020781 19.679688 9.5800781 C 19.155687 9.4030781 18.556625 9.5107344 18.140625 9.9277344 C 17.857625 10.210734 17.701172 10.587281 17.701172 10.988281 C 17.701172 11.389281 17.857625 11.765828 18.140625 12.048828 C 18.432625 12.340828 18.817172 12.486328 19.201172 12.486328 C 19.585172 12.486328 19.968719 12.340828 20.261719 12.048828 C 20.544719 11.765828 20.701172 11.389281 20.701172 10.988281 C 20.701172 10.712281 20.621422 10.44975 20.482422 10.21875 C 20.696422 9.76775 20.983937 9.3307812 21.335938 8.9257812 L 22.09375 9.6835938 C 22.39975 9.9895937 22.55925 10.41175 22.53125 10.84375 L 22.287109 14.492188 C 22.262109 14.854188 22.107562 15.196125 21.851562 15.453125 L 12.789062 24.513672 C 12.204062 25.097672 11.254969 25.099672 10.667969 24.513672 L 5.71875 19.564453 C 5.43575 19.281453 5.2792969 18.904906 5.2792969 18.503906 C 5.2792969 18.102906 5.43575 17.725406 5.71875 17.441406 L 14.779297 8.3808594 C 15.036297 8.1238594 15.378234 7.9693125 15.740234 7.9453125 L 19.388672 7.7011719 z M 19.201172 10.488281 C 19.329172 10.488281 19.456688 10.536766 19.554688 10.634766 C 19.647687 10.729766 19.699219 10.854281 19.699219 10.988281 C 19.699219 11.122281 19.648688 11.247797 19.554688 11.341797 C 19.359687 11.535797 19.042656 11.536797 18.847656 11.341797 C 18.752656 11.247797 18.701172 11.122281 18.701172 10.988281 C 18.701172 10.855281 18.753656 10.729766 18.847656 10.634766 C 18.945656 10.536766 19.073172 10.488281 19.201172 10.488281 z M 14.205078 12.701172 C 14.077078 12.701172 13.949063 12.750156 13.851562 12.847656 L 8.9003906 17.796875 C 8.7053906 17.991875 8.7053906 18.308906 8.9003906 18.503906 C 8.9983906 18.601906 9.1278594 18.650391 9.2558594 18.650391 C 9.3838594 18.650391 9.511375 18.600906 9.609375 18.503906 L 14.558594 13.554688 C 14.752594 13.358688 14.753594 13.042656 14.558594 12.847656 C 14.461094 12.750156 14.333078 12.701172 14.205078 12.701172 z M 17.033203 15.529297 C 16.904953 15.529172 16.777187 15.577781 16.679688 15.675781 L 11.728516 20.625 C 11.533516 20.82 11.533516 21.137031 11.728516 21.332031 C 11.826516 21.430031 11.954031 21.478516 12.082031 21.478516 C 12.210031 21.478516 12.3395 21.429031 12.4375 21.332031 L 17.386719 16.382812 C 17.581719 16.187812 17.581719 15.870781 17.386719 15.675781 C 17.289219 15.578281 17.161453 15.529422 17.033203 15.529297 z "></path>
</svg>
