<svg xmlns="http://www.w3.org/2000/svg" viewBox="0 0 24 24" id="Departure">
  <path d="M21.5 7.5c-.5-.5-1.1-.7-1.7-.6h-.6c-1.7.1-3.2.6-4.5 1.5l-6.6-3c-.3-.1-.6-.1-.9 0L4.6 6.9c-.3.2-.5.5-.5.8s.1.6.4.9l4.8 4-1.5 1.2-2.4-1c-.3-.1-.6-.1-.9 0l-1.7 1c-.3.2-.5.5-.5.8s.1.7.4.9L5 17.3c.8.6 1.8 1 2.8 1 .8 0 1.5-.2 2.2-.6l11.1-6.3c.8-.4 1.2-1.3 1.2-2.2-.1-.7-.3-1.3-.8-1.7zm-1.4 2.1L9 15.9c-.9.5-2 .4-2.8-.2l-1.2-1 2.5 1.1c.3.1.7.1 1-.1l3-2.3c.2-.2.4-.5.4-.8 0-.3-.1-.6-.4-.8L6.8 7.9l.9-.5 6.6 3.1c.3.2.7.1 1-.1 1.1-.9 2.5-1.4 3.9-1.5h.6c.1 0 .2 0 .3.1 0 0 .1.1.1.3.1.1 0 .2-.1.3z" fill="#a524f1" class="color000000 svgShape"></path>
</svg>
